<?xml version="1.0" encoding="UTF-8"?>
<svg width="883px" height="133px" viewBox="0 0 883 133" version="1.1" xmlns="http://www.w3.org/2000/svg" xmlns:xlink="http://www.w3.org/1999/xlink">
    <!-- Generator: Sketch 56.2 (81672) - https://sketch.com -->
    <title>caes-circles</title>
    <desc>Created with Sketch.</desc>
    <g id="Page-1" stroke="none" stroke-width="1" fill="none" fill-rule="evenodd">
        <g id="take4" transform="translate(-243.000000, 0.000000)">
            <g id="caes-circles" transform="translate(243.000000, -172.000000)">
                <g id="rightside" transform="translate(513.000000, 10.000000)">
                    <path d="M306,16 C292.997,16 280.664,18.857 269.585,23.971 C301.93,47.202 323,85.138 323,128 C323,150.49 317.192,171.621 307.006,189.987 C354.591,189.447 393,150.712 393,103 C393,54.951 354.049,16 306,16" id="Fill-20" fill="#FFCD00"></path>
                    <path d="M269.585,23.9707 C239.725,37.7527 219,67.9537 219,102.9997 C219,151.0487 257.951,189.9997 306,189.9997 C306.336,189.9997 306.671,189.9917 307.006,189.9877 C317.192,171.6207 323,150.4907 323,127.9997 C323,85.1377 301.93,47.2017 269.585,23.9707" id="Fill-26" fill="#ECBB00"></path>
                    <path d="M331,229 C312.774,229 298,243.774 298,262 C298,280.226 312.774,295 331,295 C349.226,295 364,280.226 364,262 C364,243.774 349.226,229 331,229" id="Fill-30" fill="#FFCD00"></path>
                    <path d="M69.124,104.69 C67.733,112.25 67,120.039 67,128 C67,155.438 56.3833008,192.166504 90.335,201.694 C126.690918,196.245117 111,175.955 111,158.5 C111,132.55 93.188,110.765 69.124,104.69 Z" id="Fill-28" fill="#C79B0C"></path>
                    <path d="M69.124,104.6904 C64.764,103.5894 60.202,103.0004 55.5,103.0004 C24.848,103.0004 -4.54747351e-13,127.8484 -4.54747351e-13,158.5004 C-4.54747351e-13,189.1514 24.848,214.0004 55.5,214.0004 C68.696,214.0004 80.81,209.3854 90.335,201.6934 C75.637,180.8574 67,155.4384 67,128.0004 C67,120.0384 67.733,112.2494 69.124,104.6904" id="Fill-22" fill="#B58E18"></path>
                    <path d="M219,103 C219,67.954 239.725,37.753 269.585,23.971 C248.583,8.887 222.831,0 195,0 C132.269,0 80.084,45.129 69.124,104.69 C93.187,110.765 111,132.55 111,158.5 C111,175.955 102.935,191.52 90.335,201.694 C113.506,234.542 151.746,256 195,256 C243.202,256 285.174,229.351 307.006,189.987 C306.671,189.991 306.336,190 306,190 C257.951,190 219,151.049 219,103" id="Fill-24" fill="#DAAA00"></path>
                </g>
                <g id="leftside" transform="translate(0.000000, -0.000300)">
                    <path d="M195.06894,137.610379 C199.972765,110.29165 219.922151,85.5135765 250.114338,66.0003 C271.585094,85.655698 284,108.85543 284,133.710056 C284,135.102221 283.94699,136.486333 283.869242,137.867425 C283.578366,137.817946 283.287131,137.768942 282.995539,137.720414 C281.237673,168.45987 260.360918,196.452139 226.89094,218.0003 C205.418607,198.419287 193,175.307353 193,150.546788 C193,146.235676 193.38173,141.974704 194.116915,137.772899 C194.433825,137.718162 194.751168,137.663988 195.06894,137.610379 Z" id="Combined-Shape" fill="#0F386C"></path>
                    <path d="M230.1768,211.7645 C211.8608,232.5455 186.8828,247.3095 158.5798,252.7195 C172.6308,281.8785 202.4658,302.0005 236.9998,302.0005 C265.1718,302.0005 290.2108,288.6065 306.1108,267.8445 C274.1978,259.4865 247.1708,239.0735 230.1768,211.7645" id="Fill-12" fill="#007A98"></path>
                    <path d="M306.178449,267.754798 C306.155611,267.784562 306.132894,267.814196 306.1103,267.8437 C274.1983,259.4867 247.1713,239.0737 230.1763,211.7647 C242.813633,197.4267 253.396967,170.715367 261.9263,131.6307 C261.984493,131.648074 262.042751,131.665432 262.101075,131.682774 C262.042743,131.665223 261.984384,131.647732 261.926,131.6303 C261.97,130.2583 262,128.8833 262,127.5003 C262,102.8093 254.974,79.7623 242.823,60.2363 C266.187,33.7283 300.388,17.0003 338.5,17.0003 C408.917,17.0003 466,74.0833 466,144.5003 C466,214.9173 408.917,272.0003 338.5,272.0003 C327.307,272.0003 316.454,270.5533 306.11,267.8443 C306.132835,267.814481 306.155652,267.784647 306.178449,267.754798 Z" id="Combined-Shape" fill="#1D4A83"></path>
                    <path d="M40.0791016,187.012019 C32.4291016,187.012019 32.134,190.8393 25.751,194.0823 C39.1568965,215.930965 45.5017567,252.597047 69.097168,263.135066 C72.334132,264.580736 89.1031239,246.72525 92.476,247.9023 C94.9207153,246.716792 104.183594,233.834491 104.183594,229.721491 C104.183594,203.763491 96.2553633,182.464167 70.2973633,182.464167 C44.3393633,182.464167 47.7291016,187.012019 40.0791016,187.012019 Z" id="Fill-6" fill="#005076"></path>
                    <path d="M206.437728,128.257308 C208.915232,136.024081 210.9998,142.783441 210.9998,144.5005 C210.9998,169.1915 218.0268,192.2385 230.1768,211.7645 C211.8608,232.5455 186.8828,247.3095 158.5798,252.7195 C158.576005,252.711624 158.572203,252.703748 158.568395,252.695872 C158.572159,252.703988 158.57596,252.712031 158.5798,252.72 C150.7808,254.21 142.7338,255 134.4998,255 C119.7748,255 105.6348,252.495 92.4758,247.903 C93.4678,244.101 93.9998,240.113 93.9998,236 C93.9998,210.043 72.9578,189 46.9998,189 C39.3498,189 32.1338,190.84 25.7508,194.082 C13.8608,174.702 6.9998,151.904 6.9998,127.5 C6.9998,57.084 64.0838,-1.42108547e-14 134.4998,-1.42108547e-14 C180.2248,-1.42108547e-14 220.3208,24.075 242.8228,60.236 C236.279478,67.6597438 221.687818,95.727935 206.437728,128.257308 Z" id="Combined-Shape" fill="#002855"></path>
                    <path d="M2.84217094e-13,235.9998 C2.84217094e-13,261.9578 21.043,282.9998 47,282.9998 C68.845,282.9998 87.205,268.0958 92.476,247.9028 C64.517,238.1448 40.996,218.9288 25.751,194.0818 C10.475,201.8418 2.84217094e-13,217.6928 2.84217094e-13,235.9998 Z" id="Fill-1" fill="#007A98"></path>
                </g>
            </g>
        </g>
    </g>
</svg>