<?xml version="1.0" encoding="UTF-8"?>
<svg width="168px" height="39px" viewBox="0 0 168 39" version="1.1" xmlns="http://www.w3.org/2000/svg" xmlns:xlink="http://www.w3.org/1999/xlink">
    <title>caes-logo</title>
    <g id="Current" stroke="none" stroke-width="1" fill="none" fill-rule="evenodd">
        <g id="person-copy-2" transform="translate(-958.000000, -38.000000)">
            <g id="caes-logo" transform="translate(958.000000, 38.000000)">
                <path d="M74.4789956,13.0605937 L75.837785,9.41029928 L76.0727486,9.61820492 C76.9056195,10.309021 78.0359443,10.8966467 79.102279,10.9200298 C80.0561312,10.9423961 80.5215591,10.6841661 80.3950787,9.86321842 C80.3015931,9.25068468 79.6206987,9.14241108 79.1947647,9.05752051 L78.2624092,8.86791463 C76.4476905,8.52276075 74.9214271,7.38461714 74.9214271,5.22727837 C74.9214271,1.96585387 77.6859986,0.136894189 80.4665676,0.136894189 C81.9268412,0.136894189 83.2681333,0.515089299 84.5214391,1.3451869 L83.3441216,4.57967007 C82.6972218,4.10590953 81.7198733,3.43949315 80.4815652,3.39425207 C80.0746283,3.37849394 79.1417729,3.59656612 79.4402267,4.55781202 C79.5692067,4.96752339 80.1466172,5.13984616 80.5020621,5.22727837 L81.5558987,5.48601669 C83.5210941,5.951644 84.9443735,7.09029594 84.9443735,9.41944916 C84.9443735,12.6981568 82.1628047,14.3202275 79.4007328,14.3202275 C77.7879828,14.3202275 75.9212721,13.8535835 74.4789956,13.0605937" id="Fill-3" fill="#DAAA00"></path>
                <polygon id="Fill-4" fill="#DAAA00" points="68.7453843 14.1138468 73.4791506 14.1138468 73.4791506 0.36106629 68.7453843 0.36106629"></polygon>
                <polyline id="Fill-5" fill="#DAAA00" points="63.4072118 0.360557964 68.2554603 0.360557964 63.3027279 14.1138468 59.3688377 14.1138468 54.4321029 0.360557964 59.263854 0.360557964 61.3365327 8.66000898 63.4072118 0.360557964"></polyline>
                <path d="M50.0037893,4.33058996 L50.0037893,4.33058996 C50.0897759,4.91567406 50.9376445,9.12512797 50.9376445,9.12512797 L49.076433,9.12512797 L50.0037893,4.33058996 Z M42.9478829,14.1138468 L47.8666205,14.1138468 L48.2410625,12.3865525 L51.7505185,12.3865525 L52.2164463,14.1138468 L57.1381834,14.1138468 L52.5313975,0.36106629 L47.3716972,0.36106629 L42.9478829,14.1138468 L42.9478829,14.1138468 Z" id="Fill-6" fill="#DAAA00"></path>
                <path d="M30.785768,0.360557964 L35.6345165,0.360557964 C39.9623457,0.360557964 43.2678333,2.38064851 43.2678333,7.43595814 C43.2678333,11.5086721 40.5742508,14.1138468 36.7898374,14.1138468 L30.785768,14.1062219 L30.785768,0.360557964 Z M35.5515293,10.1651645 L35.8689801,10.1651645 C37.4292383,10.1651645 38.5870588,9.2130685 38.5870588,7.4181667 C38.5870588,5.48601669 37.5617178,4.40836396 35.8474835,4.40836396 L35.5515293,4.40836396 L35.5515293,10.1651645 L35.5515293,10.1651645 Z" id="Fill-7" fill="#DAAA00"></path>
                <path d="M27.9547068,0.792127383 L28.2076676,3.04960653 C28.2666585,3.5848746 28.5681118,4.86992465 28.1951696,4.69811021 C27.9632055,4.59237824 27.7717352,4.00983578 27.5817647,3.49185081 C27.4852796,3.22904587 27.0243511,1.98669527 26.9038697,1.89519645 C26.3204602,1.45244384 24.8671854,0.952250313 23.8838378,0.947675372 C20.9023,0.936492183 18.9301056,3.17312993 18.9301056,7.1426536 C18.9301056,9.98928346 20.269898,13.4042226 23.6798694,13.4042226 C24.9016801,13.4042226 27.2413174,13.0133194 27.8787186,11.2458672 C28.166674,10.4457609 28.4296332,9.73461175 28.6201037,9.95115895 C28.7620817,10.1082319 28.5776103,10.7487236 28.4926235,11.0938775 C28.0906858,12.7322147 28.0686892,13.2288499 27.9422088,13.2923907 C26.4019475,14.0797889 24.4257538,14.3385272 22.6970218,14.3385272 C17.1978741,14.3385272 15.2996684,11.0765944 15.2996684,7.81567823 C15.2996684,2.15647641 18.7186384,-0.227067771 24.0173171,0.0169290735 C25.3581093,0.0677617495 26.6994014,0.310233614 27.9547068,0.792127383" id="Fill-9" fill="#DAAA00"></path>
                <path d="M11.7202232,1.0432408 L10.8393597,0.730619845 C10.5449053,0.460190009 10.9048496,0.384449321 10.9048496,0.384449321 C10.9048496,0.384449321 12.1771523,0.624887879 15.347161,0.350899755 C15.347161,0.350899755 15.6221184,0.407324025 15.4326478,0.634037761 L14.3918091,1.08746523 C13.7144141,1.38788635 13.7144141,1.21556357 13.7144141,1.97042881 L13.708415,8.97923819 C13.708415,14.4615423 8.22576481,14.3385272 7.1574304,14.3385272 C6.64800936,14.3385272 1.61878888,14.3385272 1.61878888,9.93794246 L1.61878888,2.51789673 C1.61878888,1.22471346 1.75526773,1.25826302 1.33233328,1.10728997 L0.0605304102,0.621837918 C0.0605304102,0.621837918 -0.155436115,0.311250268 0.228504374,0.331075011 C1.2683432,0.384449321 2.77310996,0.61065473 6.31306128,0.350899755 C6.31306128,0.350899755 6.62151347,0.427657096 6.41854493,0.653862504 L5.36020897,0.95733358 C4.5548338,1.3243455 4.66131729,1.0432408 4.63982063,1.88452159 L4.66531667,9.199852 C4.66531667,10.9937371 5.57317596,13.2151251 8.42823343,13.2151251 C12.314631,13.2151251 12.3516253,9.79662762 12.3516253,9.03617078 L12.3581243,1.78946449 C12.3996179,1.10728997 12.314631,1.3014708 11.7202232,1.0432408" id="Fill-11" fill="#DAAA00"></path>
                <polygon id="Fill-12" fill="#DAAA00" points="1.61978873 17.7351666 167.950508 17.7351666 167.950508 17.1607574 1.61978873 17.1607574"></polygon>
                <path d="M6.46353795,23.4909505 C6.37305198,23.3653938 6.26906809,23.2555953 6.15358599,23.1620631 C6.03760397,23.0675143 5.91312327,22.989232 5.77914403,22.9246745 C5.64566472,22.8606254 5.50618634,22.8123343 5.35920912,22.7792931 C5.21273183,22.7467602 5.06425484,22.7299854 4.91477801,22.7299854 C4.64481985,22.7299854 4.39835805,22.7792931 4.17489269,22.8779085 C3.95242717,22.9760155 3.76145677,23.1122471 3.60348126,23.2850782 C3.44500582,23.4579093 3.32152496,23.6607317 3.2335386,23.8935453 C3.14605216,24.1258507 3.10205898,24.3769641 3.10205898,24.6453606 C3.10205898,24.9198571 3.14605216,25.1714788 3.2335386,25.4012425 C3.32152496,25.6310062 3.44650559,25.8287453 3.60748064,25.9944598 C3.76895561,26.159666 3.96292554,26.2897977 4.1883906,26.3833298 C4.41435557,26.4768619 4.66481675,26.523628 4.9412739,26.523628 C5.08475166,26.523628 5.22722958,26.5073615 5.36970749,26.4727953 C5.51218541,26.4387374 5.64866426,26.3894297 5.77914403,26.3253806 C5.90962381,26.2608231 6.03310467,26.1840657 6.14858677,26.0946002 C6.26456879,26.0051347 6.37005244,25.9039777 6.46353795,25.7906208 L6.46353795,27.9428763 C6.31656073,27.9871007 6.17908204,28.0298002 6.05010203,28.0704663 C5.92112203,28.1101158 5.79464163,28.144682 5.67116077,28.1731483 C5.54817983,28.2016146 5.42469897,28.223981 5.29921842,28.2402475 C5.17473771,28.2570222 5.04325809,28.2651555 4.90627933,28.2651555 C4.43035309,28.2651555 3.97492368,28.1767066 3.53949118,28.0008256 C3.10355874,27.8249445 2.70861996,27.5743394 2.35317505,27.2490103 C1.97823317,26.9033481 1.70227594,26.5099032 1.52630322,26.0702005 C1.35033049,25.6304979 1.26234413,25.1521624 1.26234413,24.6367191 C1.26234413,24.1619419 1.34783088,23.7069894 1.51780453,23.2718617 C1.68777819,22.8362257 1.93723952,22.4483724 2.26568861,22.1083018 C2.43316266,21.9354707 2.61613429,21.7794143 2.81560338,21.6406411 C3.01507246,21.5023763 3.22603976,21.3839361 3.44750543,21.2868457 C3.66797126,21.1902636 3.89793562,21.1160479 4.13589873,21.0657236 C4.37336193,21.0148909 4.61082512,20.9894746 4.84828831,20.9894746 C5.13324415,20.9894746 5.40770161,21.0204825 5.67116077,21.0814817 C5.93561978,21.1429892 6.19957887,21.2283881 6.46353795,21.3392034 L6.46353795,23.4909505" id="Fill-13" fill="#002855"></path>
                <path d="M11.5552487,22.6852526 C11.2912897,22.6852526 11.0428282,22.7350686 10.811364,22.835209 C10.5798999,22.9353494 10.3764315,23.0695477 10.2019585,23.2383121 C10.0279855,23.4065683 9.88950693,23.6007491 9.78852258,23.8193296 C9.68753824,24.0389268 9.63654614,24.2681822 9.63654614,24.5065874 C9.63654614,24.8049752 9.68753824,25.07998 9.78852258,25.3321101 C9.88950693,25.5837318 10.0279855,25.8012957 10.2019585,25.9848016 C10.3764315,26.1683076 10.5798999,26.3116557 10.811364,26.4143377 C11.0428282,26.5175281 11.2912897,26.5693774 11.5552487,26.5693774 C11.8187079,26.5693774 12.0676693,26.5175281 12.3006332,26.4143377 C12.534097,26.3116557 12.7375655,26.1683076 12.9100388,25.9848016 C13.0830119,25.8012957 13.2204906,25.5837318 13.3209751,25.3321101 C13.4229593,25.07998 13.4739513,24.8049752 13.4739513,24.5065874 C13.4739513,24.2681822 13.4229593,24.0389268 13.3209751,23.8193296 C13.2204906,23.6007491 13.0830119,23.4065683 12.9100388,23.2383121 C12.7375655,23.0695477 12.534097,22.9353494 12.3006332,22.835209 C12.0676693,22.7350686 11.8187079,22.6852526 11.5552487,22.6852526 M11.5552487,20.9447418 C11.8806983,20.9447418 12.1996489,20.9843913 12.5121004,21.0636903 C12.824552,21.1429892 13.1200062,21.2548211 13.398463,21.4012192 C13.6774198,21.547109 13.93438,21.72604 14.1688436,21.935979 C14.4038072,22.1464263 14.605276,22.3833065 14.7737499,22.6476364 C14.9427237,22.911458 15.0747032,23.1986627 15.1701884,23.508742 C15.2651737,23.8188213 15.3131663,24.1487254 15.3131663,24.4974375 C15.3131663,25.0581219 15.2201807,25.5720403 15.0337096,26.0386843 C14.8472385,26.5058366 14.5867789,26.9069064 14.2523307,27.242402 C13.9178825,27.578406 13.521444,27.839686 13.0620152,28.0277669 C12.6030863,28.2153395 12.1006642,28.3093799 11.5552487,28.3093799 C11.1908052,28.3093799 10.8458587,28.2671888 10.5189094,28.1822982 C10.1919601,28.0974076 9.88950693,27.9754092 9.61204994,27.8173196 C9.33509286,27.6597383 9.08463169,27.4670825 8.86016648,27.242402 C8.63520135,27.0172133 8.44473087,26.7630499 8.2877552,26.4799119 C8.13127945,26.1962656 8.00979828,25.8877112 7.92531138,25.5557738 C7.84032455,25.2228198 7.79733122,24.8705494 7.79733122,24.4974375 C7.79733122,24.1487254 7.84532378,23.8188213 7.94030905,23.508742 C8.03579425,23.1986627 8.16827372,22.911458 8.3387473,22.6476364 C8.50872095,22.3833065 8.71018972,22.1464263 8.94365354,21.935979 C9.17661743,21.72604 9.43307768,21.547109 9.71153452,21.4012192 C9.98999136,21.2548211 10.2854456,21.1429892 10.5978971,21.0636903 C10.9108486,20.9843913 11.2292993,20.9447418 11.5552487,20.9447418" id="Fill-14" fill="#002855"></path>
                <polyline id="Fill-15" fill="#002855" points="18.5941577 26.5602275 20.7153289 26.5602275 20.7153289 28.0816495 16.8294313 28.0816495 16.8294313 21.1729805 18.5941577 21.1729805 18.5941577 26.5602275"></polyline>
                <polyline id="Fill-16" fill="#002855" points="24.0653097 26.5602275 26.1864809 26.5602275 26.1864809 28.0816495 22.3005832 28.0816495 22.3005832 21.1729805 24.0653097 21.1729805 24.0653097 26.5602275"></polyline>
                <polyline id="Fill-17" fill="#002855" points="29.5364617 22.6944025 29.5364617 23.8483043 31.5291528 23.8483043 31.5291528 25.3702346 29.5364617 25.3702346 29.5364617 26.5602275 31.6396357 26.5602275 31.6396357 28.0806329 27.7717352 28.0806329 27.7717352 21.1729805 31.6396357 21.1729805 31.6396357 22.6944025 29.5364617 22.6944025"></polyline>
                <path d="M40.340787,24.2244661 C40.3357878,24.4750711 40.3247895,24.7180513 40.3102917,24.953915 C40.295794,25.1892702 40.263799,25.4200506 40.2153065,25.6452394 C40.1678138,25.8699198 40.0983246,26.0915502 40.0088385,26.3070808 C39.9193523,26.523628 39.7978712,26.7391585 39.6458947,26.9541808 C39.4784207,27.189536 39.2919496,27.3928668 39.0874813,27.5641729 C38.8815132,27.7359873 38.6600475,27.8773022 38.4220844,27.9876091 C38.1851211,28.0974076 37.93416,28.1792483 37.6707009,28.2310976 C37.4057419,28.2834552 37.1312845,28.3093799 36.8473285,28.3093799 C36.3134113,28.3093799 35.8239871,28.2214394 35.3800559,28.0460666 C34.9356248,27.8696773 34.5531841,27.6216138 34.2337336,27.3008596 C33.9137832,26.9795971 33.6653217,26.5963187 33.4873493,26.1484828 C33.3098768,25.7011553 33.2213905,25.206045 33.2213905,24.6626437 C33.2213905,24.1019593 33.3108766,23.5926159 33.4898489,23.1351218 C33.6688212,22.6776277 33.9207821,22.2867244 34.244232,21.9629203 C34.5681818,21.6396245 34.9566216,21.3890194 35.4085515,21.211105 C35.8599815,21.033699 36.3599041,20.9447418 36.908819,20.9447418 C37.6072107,20.9447418 38.218616,21.1053731 38.7435346,21.4261272 C39.2689532,21.7468814 39.6778898,22.2308085 39.9713443,22.8779085 L38.295604,23.5895659 C38.2336136,23.4253764 38.1556257,23.2764366 38.0621402,23.1422384 C37.9671549,23.0075318 37.8591717,22.8916333 37.7361907,22.7950512 C37.6127099,22.6979608 37.4752312,22.6237451 37.3222549,22.5713874 C37.1697785,22.5195381 37.0043042,22.4936134 36.8258318,22.4936134 C36.5353769,22.4936134 36.2789166,22.5571543 36.0594506,22.685761 C35.8394847,22.8138593 35.6555132,22.9816071 35.5070362,23.1884961 C35.3590592,23.3964018 35.2475765,23.6297237 35.173088,23.8889704 C35.0980996,24.1487254 35.0606054,24.409497 35.0606054,24.6723019 C35.0606054,24.9406985 35.0995994,25.2035034 35.1770874,25.4622417 C35.2550753,25.7194551 35.3695576,25.9507437 35.5205342,26.1550911 C35.6715108,26.3594384 35.8589817,26.523628 36.0839468,26.6476597 C36.3079121,26.7716915 36.5658721,26.833199 36.8563271,26.833199 C37.0462977,26.833199 37.22477,26.808291 37.3907443,26.75695 C37.5562186,26.7061173 37.7011962,26.6303766 37.8261768,26.5312529 C37.9506575,26.4311125 38.0526417,26.3065725 38.1316294,26.1571244 C38.2111171,26.0081847 38.2596096,25.8338286 38.2771069,25.6340562 L36.8343305,25.6340562 L36.8343305,24.2244661 L40.340787,24.2244661" id="Fill-18" fill="#002855"></path>
                <polyline id="Fill-19" fill="#002855" points="43.6002818 22.6944025 43.6002818 23.8483043 45.5934729 23.8483043 45.5934729 25.3702346 43.6002818 25.3702346 43.6002818 26.5602275 45.7034558 26.5602275 45.7034558 28.0806329 41.8355553 28.0806329 41.8355553 21.1729805 45.7034558 21.1729805 45.7034558 22.6944025 43.6002818 22.6944025"></polyline>
                <path d="M53.115307,24.2285327 C52.9268362,24.2285327 52.7498636,24.2641155 52.5843893,24.3352813 C52.4189149,24.4074637 52.2734375,24.5025208 52.1494567,24.6235026 C52.0244761,24.743976 51.9259913,24.8822409 51.8540025,25.0382972 C51.7815137,25.1948618 51.7460192,25.3590514 51.7460192,25.5283242 C51.7460192,25.7423298 51.7815137,25.9380356 51.8540025,26.1184916 C51.9259913,26.2984392 52.0244761,26.4534789 52.1494567,26.5851355 C52.2734375,26.7152672 52.4189149,26.8179492 52.5843893,26.8916566 C52.7498636,26.9648556 52.9268362,27.0019635 53.115307,27.0019635 C53.3037778,27.0019635 53.4812503,26.9648556 53.6477245,26.8916566 C53.8146986,26.8179492 53.9596761,26.7152672 54.083157,26.5851355 C54.2066378,26.4534789 54.3041227,26.2984392 54.3766115,26.1184916 C54.4486003,25.9380356 54.4850947,25.7423298 54.4850947,25.5283242 C54.4850947,25.3590514 54.4486003,25.1948618 54.3766115,25.0382972 C54.3041227,24.8822409 54.2066378,24.743976 54.083157,24.6235026 C53.9596761,24.5025208 53.8146986,24.4074637 53.6477245,24.3352813 C53.4812503,24.2641155 53.3037778,24.2285327 53.115307,24.2285327 M53.115307,22.9861821 C53.347771,22.9861821 53.5752357,23.01414 53.7982011,23.0705643 C54.0216665,23.1274969 54.2321339,23.2073042 54.431603,23.3120195 C54.6300722,23.4157182 54.8145436,23.5427999 54.9815177,23.6937729 C55.1484918,23.8437293 55.2934694,24.0124938 55.4134508,24.2015914 C55.5334322,24.3901806 55.6274176,24.5950363 55.6964069,24.8166667 C55.7638965,25.0377889 55.7978912,25.2731442 55.7978912,25.5222243 C55.7978912,25.9227858 55.7314015,26.290306 55.5984221,26.6227517 C55.4654427,26.9557057 55.2804714,27.2429104 55.0410085,27.4828406 C54.8025455,27.7217542 54.5195893,27.9093267 54.1911402,28.043525 C53.8631911,28.1772149 53.5052465,28.2443141 53.115307,28.2443141 C52.8553473,28.2443141 52.6088855,28.2148311 52.3754217,28.1533236 C52.1414579,28.0923244 51.9259913,28.0064172 51.728022,27.8920436 C51.5300527,27.7802117 51.3510804,27.6434718 51.1906053,27.4828406 C51.0306301,27.3211927 50.8946512,27.13972 50.7821686,26.937406 C50.6706859,26.7356003 50.5841993,26.5149864 50.5237087,26.2786145 C50.4622182,26.0402092 50.4322229,25.7885875 50.4322229,25.5222243 C50.4322229,25.2731442 50.4662176,25.0377889 50.5352069,24.8166667 C50.6026964,24.5950363 50.6971818,24.3901806 50.818663,24.2015914 C50.9401441,24.0124938 51.0846217,23.8437293 51.250596,23.6937729 C51.4170702,23.5427999 51.6000418,23.4157182 51.799011,23.3120195 C51.9979802,23.2073042 52.2089475,23.1274969 52.4319129,23.0705643 C52.6553783,23.01414 52.8823431,22.9861821 53.115307,22.9861821" id="Fill-20" fill="#002855"></path>
                <polyline id="Fill-21" fill="#002855" points="57.8950661 24.2351409 57.8950661 25.0591386 59.2808513 25.0591386 59.2808513 26.1454329 57.8950661 26.1454329 57.8950661 28.0816495 56.6352614 28.0816495 56.6352614 23.149355 59.4218295 23.149355 59.4218295 24.2351409 57.8950661 24.2351409"></polyline>
                <path d="M66.8451789,23.3074446 L66.8281815,23.3074446 L66.0972948,25.5084995 L67.5665671,25.5084995 L66.8451789,23.3074446 Z M65.6088705,26.8819984 L65.1424428,28.0806329 L63.2682333,28.0806329 L65.8818282,21.1729805 L67.8090295,21.1729805 L70.3701325,28.0806329 L68.4869244,28.0806329 L68.0424933,26.8819984 L65.6088705,26.8819984 L65.6088705,26.8819984 Z" id="Fill-22" fill="#002855"></path>
                <path d="M78.4758761,24.2244661 C78.4698771,24.4750711 78.4593787,24.7180513 78.4453809,24.953915 C78.4303832,25.1892702 78.3988881,25.4200506 78.3503956,25.6452394 C78.302403,25.8699198 78.2329138,26.0915502 78.1439276,26.3070808 C78.0539415,26.523628 77.9329603,26.7391585 77.7804839,26.9541808 C77.6135098,27.189536 77.4270387,27.3928668 77.2220705,27.5641729 C77.0166023,27.7359873 76.7951366,27.8773022 76.5571735,27.9876091 C76.3202103,28.0974076 76.0692492,28.1792483 75.8052901,28.2310976 C75.5403311,28.2834552 75.2663736,28.3093799 74.9824176,28.3093799 C74.4480004,28.3093799 73.9585763,28.2214394 73.5146451,28.0460666 C73.0697141,27.8696773 72.6877733,27.6216138 72.3683228,27.3008596 C72.0488723,26.9795971 71.8004108,26.5963187 71.6229383,26.1484828 C71.444466,25.7011553 71.3564796,25.206045 71.3564796,24.6626437 C71.3564796,24.1019593 71.4459658,23.5926159 71.6244381,23.1351218 C71.8039103,22.6776277 72.0553713,22.2867244 72.3793211,21.9629203 C72.7037708,21.6396245 73.0917107,21.3890194 73.5431407,21.211105 C73.9955706,21.033699 74.4954931,20.9447418 75.0439081,20.9447418 C75.7422998,20.9447418 76.3532051,21.1053731 76.8781238,21.4261272 C77.4035423,21.7468814 77.812479,22.2308085 78.1064334,22.8779085 L76.4301932,23.5895659 C76.3682028,23.4253764 76.2902149,23.2764366 76.1967294,23.1422384 C76.102744,23.0075318 75.9947607,22.8916333 75.8707799,22.7950512 C75.747799,22.6979608 75.6103203,22.6237451 75.457344,22.5713874 C75.3043677,22.5195381 75.1393933,22.4936134 74.9599211,22.4936134 C74.6694661,22.4936134 74.4150056,22.5571543 74.1940398,22.685761 C73.9745738,22.8138593 73.7906023,22.9816071 73.6426253,23.1884961 C73.4941483,23.3964018 73.3826656,23.6297237 73.3081771,23.8889704 C73.2331887,24.1487254 73.1956946,24.409497 73.1956946,24.6723019 C73.1956946,24.9406985 73.2341886,25.2035034 73.3116766,25.4622417 C73.3901644,25.7194551 73.5041467,25.9507437 73.6556233,26.1550911 C73.8065999,26.3594384 73.9945707,26.523628 74.218536,26.6476597 C74.4430012,26.7716915 74.7004613,26.833199 74.9909163,26.833199 C75.1813868,26.833199 75.3593592,26.808291 75.5253335,26.75695 C75.6908078,26.7061173 75.8362853,26.6303766 75.9612659,26.5312529 C76.0857466,26.4311125 76.1877308,26.3065725 76.2667185,26.1571244 C76.3462062,26.0081847 76.3946987,25.8338286 76.412196,25.6340562 L74.9694196,25.6340562 L74.9694196,24.2244661 L78.4758761,24.2244661" id="Fill-23" fill="#002855"></path>
                <path d="M82.095815,24.2697071 L82.2667885,24.2697071 C82.4107662,24.2697071 82.5562437,24.2595406 82.702721,24.2402242 C82.8496982,24.2209078 82.9811778,24.18075 83.0991595,24.1197507 C83.2161414,24.0577349 83.3111267,23.9718277 83.3846153,23.8599958 C83.457604,23.7486722 83.4945982,23.5987158 83.4945982,23.4101266 C83.4945982,23.222554 83.457604,23.071581 83.3846153,22.9582241 C83.3111267,22.8448672 83.2161414,22.757435 83.0991595,22.6964358 C82.9811778,22.6354366 82.8496982,22.5952788 82.702721,22.575454 C82.5562437,22.5561376 82.4107662,22.5469877 82.2667885,22.5469877 L82.095815,22.5469877 L82.095815,24.2697071 Z M85.9807129,28.0816495 L83.7805539,28.0816495 L82.1178116,25.4241172 L82.095815,25.4241172 L82.095815,28.0816495 L80.3310886,28.0816495 L80.3310886,21.1729805 L82.9711794,21.1729805 C83.3056275,21.1729805 83.6170792,21.2146633 83.9060345,21.2985372 C84.1949897,21.3824111 84.4454509,21.5100012 84.6564182,21.6838489 C84.8678854,21.8561717 85.0333597,22.0762772 85.1533411,22.3426404 C85.2738225,22.6100203 85.3338132,22.9282328 85.3338132,23.2977864 C85.3338132,23.5372083 85.3018181,23.763922 85.2373281,23.9809775 C85.1723382,24.1975247 85.076853,24.3917056 84.9508725,24.5645367 C84.824892,24.7378761 84.6694161,24.8837659 84.4844448,25.0032227 C84.2999734,25.1226794 84.0870064,25.2045201 83.8470436,25.2492528 L85.9807129,28.0816495 L85.9807129,28.0816495 Z" id="Fill-24" fill="#002855"></path>
                <polygon id="Fill-25" fill="#002855" points="87.5144752 28.0806329 89.2792016 28.0806329 89.2792016 21.1729805 87.5144752 21.1729805"></polygon>
                <path d="M96.1686338,23.4909505 C96.0776479,23.3653938 95.9741639,23.2555953 95.8581819,23.1620631 C95.7426998,23.0675143 95.6177192,22.989232 95.4837399,22.9246745 C95.3507605,22.8606254 95.2107822,22.8123343 95.063805,22.7792931 C94.9173277,22.7467602 94.7693507,22.7299854 94.6198738,22.7299854 C94.3499157,22.7299854 94.102954,22.7792931 93.8799885,22.8779085 C93.6570231,22.9760155 93.4660527,23.1122471 93.3085771,23.2850782 C93.1496017,23.4579093 93.0266208,23.6607317 92.9386344,23.8935453 C92.8506481,24.1258507 92.8071548,24.3769641 92.8071548,24.6453606 C92.8071548,24.9198571 92.8506481,25.1714788 92.9386344,25.4012425 C93.0266208,25.6310062 93.1511015,25.8287453 93.3120765,25.9944598 C93.4740514,26.159666 93.6675214,26.2897977 93.8929865,26.3833298 C94.1199513,26.4768619 94.3699126,26.523628 94.6458698,26.523628 C94.7893476,26.523628 94.9328253,26.5073615 95.0748033,26.4727953 C95.2172812,26.4387374 95.3532602,26.3894297 95.4837399,26.3253806 C95.6147196,26.2608231 95.7382005,26.1840657 95.8536826,26.0946002 C95.9691647,26.0051347 96.0746483,25.9039777 96.1686338,25.7906208 L96.1686338,27.9428763 C96.0216566,27.9871007 95.8841779,28.0298002 95.7546979,28.0704663 C95.6257179,28.1101158 95.4992375,28.144682 95.3762566,28.1731483 C95.2527757,28.2016146 95.1292949,28.223981 95.0043142,28.2402475 C94.8798335,28.2570222 94.7483539,28.2651555 94.6108752,28.2651555 C94.1359488,28.2651555 93.6800195,28.1767066 93.244587,28.0008256 C92.8086546,27.8249445 92.4132159,27.5743394 92.0587708,27.2490103 C91.683329,26.9033481 91.4073718,26.5099032 91.231399,26.0702005 C91.0554263,25.6304979 90.96744,25.1521624 90.96744,24.6367191 C90.96744,24.1619419 91.0524268,23.7069894 91.2229004,23.2718617 C91.3923741,22.8362257 91.6423353,22.4483724 91.9707844,22.1083018 C92.1377586,21.9354707 92.3212301,21.7794143 92.5201993,21.6406411 C92.7201683,21.5023763 92.9306357,21.3839361 93.1521013,21.2868457 C93.3740669,21.1902636 93.6025315,21.1160479 93.8404946,21.0657236 C94.0784577,21.0148909 94.315421,20.9894746 94.5538841,20.9894746 C94.83834,20.9894746 95.1122975,21.0204825 95.3762566,21.0814817 C95.6402157,21.1429892 95.9046747,21.2283881 96.1686338,21.3392034 L96.1686338,23.4909505" id="Fill-26" fill="#002855"></path>
                <path d="M104.169894,21.1729805 L104.169894,25.056597 C104.169894,25.2802607 104.164894,25.5013829 104.154396,25.7189467 C104.144398,25.9370189 104.115902,26.1489912 104.068909,26.3568968 C104.021917,26.5637858 103.950928,26.7640666 103.854942,26.9567224 C103.759957,27.1488699 103.628977,27.3283093 103.461503,27.4950404 C103.320525,27.6383886 103.16105,27.7583537 102.982078,27.8554441 C102.803105,27.9525345 102.615135,28.0313252 102.418665,28.0923244 C102.221696,28.1538319 102.020227,28.197548 101.812759,28.2249977 C101.606791,28.2509223 101.404822,28.2646471 101.208353,28.2646471 C101.008884,28.2646471 100.805915,28.2509223 100.598947,28.2249977 C100.391979,28.197548 100.19151,28.1538319 99.9955406,28.0923244 C99.8010707,28.0313252 99.6140997,27.9525345 99.4351275,27.8554441 C99.2566551,27.7583537 99.09618,27.6383886 98.9552019,27.4950404 C98.7857281,27.3283093 98.6527487,27.1488699 98.5577635,26.9567224 C98.4617783,26.7640666 98.3912893,26.5637858 98.3442965,26.3568968 C98.2973038,26.1489912 98.2678084,25.9370189 98.2588098,25.7189467 C98.2478115,25.5013829 98.2428123,25.2802607 98.2428123,25.056597 L98.2428123,21.1729805 L100.007539,21.1729805 L100.007539,24.8105668 C100.007539,24.9595066 100.011038,25.1109879 100.018537,25.2624693 C100.025036,25.4149673 100.041533,25.5598405 100.06653,25.699122 C100.091526,25.8368785 100.12952,25.9675185 100.181012,26.087992 C100.232504,26.2089737 100.302493,26.313689 100.391979,26.4031546 C100.481965,26.4926201 100.592448,26.5632775 100.723928,26.6141102 C100.856407,26.6644345 101.017382,26.6898508 101.208353,26.6898508 C101.396323,26.6898508 101.556799,26.6644345 101.690278,26.6141102 C101.823757,26.5632775 101.93474,26.4926201 102.022726,26.4031546 C102.110713,26.313689 102.180202,26.2089737 102.231194,26.087992 C102.283186,25.9675185 102.32218,25.8368785 102.348176,25.699122 C102.374172,25.5598405 102.390669,25.4149673 102.396169,25.2624693 C102.402168,25.1109879 102.405667,24.9595066 102.405667,24.8105668 L102.405667,21.1729805 L104.169894,21.1729805" id="Fill-27" fill="#002855"></path>
                <polyline id="Fill-28" fill="#002855" points="108.115782 26.5602275 110.236453 26.5602275 110.236453 28.0816495 106.350556 28.0816495 106.350556 21.1729805 108.115782 21.1729805 108.115782 26.5602275"></polyline>
                <polyline id="Fill-29" fill="#002855" points="114.045863 28.0816495 112.281636 28.0816495 112.281636 22.6949108 110.820863 22.6949108 110.820863 21.1729805 115.507636 21.1729805 115.507636 22.6949108 114.045863 22.6949108 114.045863 28.0816495"></polyline>
                <path d="M123.023471,21.1729805 L123.023471,25.056597 C123.023471,25.2802607 123.018472,25.5013829 123.007974,25.7189467 C122.997975,25.9370189 122.96948,26.1489912 122.922987,26.3568968 C122.875494,26.5637858 122.804505,26.7640666 122.70902,26.9567224 C122.613535,27.1488699 122.483055,27.3283093 122.316081,27.4950404 C122.174603,27.6383886 122.014128,27.7583537 121.836155,27.8554441 C121.656683,27.9525345 121.468712,28.0313252 121.272243,28.0923244 C121.075273,28.1538319 120.874304,28.197548 120.666837,28.2249977 C120.460869,28.2509223 120.2584,28.2646471 120.06243,28.2646471 C119.863461,28.2646471 119.659493,28.2509223 119.452525,28.2249977 C119.245557,28.197548 119.045088,28.1538319 118.850118,28.0923244 C118.655148,28.0313252 118.468177,27.9525345 118.289205,27.8554441 C118.110233,27.7583537 117.950758,27.6383886 117.809779,27.4950404 C117.639306,27.3283093 117.506326,27.1488699 117.411341,26.9567224 C117.315856,26.7640666 117.244367,26.5637858 117.197874,26.3568968 C117.150882,26.1489912 117.121886,25.9370189 117.112388,25.7189467 C117.101389,25.5013829 117.09639,25.2802607 117.09639,25.056597 L117.09639,21.1729805 L118.861116,21.1729805 L118.861116,24.8105668 C118.861116,24.9595066 118.864616,25.1109879 118.872115,25.2624693 C118.879114,25.4149673 118.895611,25.5598405 118.920607,25.699122 C118.945603,25.8368785 118.983098,25.9675185 119.03509,26.087992 C119.086582,26.2089737 119.156571,26.313689 119.245557,26.4031546 C119.335543,26.4926201 119.446526,26.5632775 119.578005,26.6141102 C119.709985,26.6644345 119.87146,26.6898508 120.06243,26.6898508 C120.249901,26.6898508 120.410876,26.6644345 120.544356,26.6141102 C120.677835,26.5632775 120.788318,26.4926201 120.876804,26.4031546 C120.96479,26.313689 121.03328,26.2089737 121.085772,26.087992 C121.137264,25.9675185 121.175758,25.8368785 121.201254,25.699122 C121.22825,25.5598405 121.244247,25.4149673 121.250246,25.2624693 C121.256245,25.1109879 121.259245,24.9595066 121.259245,24.8105668 L121.259245,21.1729805 L123.023471,21.1729805" id="Fill-30" fill="#002855"></path>
                <path d="M126.96936,24.2697071 L127.140333,24.2697071 C127.284311,24.2697071 127.429788,24.2595406 127.575766,24.2402242 C127.722743,24.2209078 127.855222,24.18075 127.972704,24.1197507 C128.090186,24.0577349 128.185171,23.9718277 128.25916,23.8599958 C128.332148,23.7486722 128.368143,23.5987158 128.368143,23.4101266 C128.368143,23.222554 128.332148,23.071581 128.25916,22.9582241 C128.185171,22.8448672 128.090186,22.757435 127.972704,22.6964358 C127.855222,22.6354366 127.722743,22.5952788 127.575766,22.575454 C127.429788,22.5561376 127.284311,22.5469877 127.140333,22.5469877 L126.96936,22.5469877 L126.96936,24.2697071 Z M130.854757,28.0816495 L128.654099,28.0816495 L126.991356,25.4241172 L126.96936,25.4241172 L126.96936,28.0816495 L125.204633,28.0816495 L125.204633,21.1729805 L127.844724,21.1729805 C128.178672,21.1729805 128.490624,21.2146633 128.780079,21.2985372 C129.069034,21.3824111 129.319495,21.5100012 129.530463,21.6838489 C129.74093,21.8561717 129.906904,22.0762772 130.027386,22.3426404 C130.147367,22.6100203 130.207358,22.9282328 130.207358,23.2977864 C130.207358,23.5372083 130.175363,23.763922 130.110873,23.9809775 C130.046383,24.1975247 129.950898,24.3917056 129.824917,24.5645367 C129.698937,24.7378761 129.543461,24.8837659 129.358489,25.0032227 C129.174018,25.1226794 128.961051,25.2045201 128.720588,25.2492528 L130.854757,28.0816495 L130.854757,28.0816495 Z" id="Fill-31" fill="#002855"></path>
                <path d="M135.660013,23.3074446 L135.643515,23.3074446 L134.912129,25.5084995 L136.381901,25.5084995 L135.660013,23.3074446 Z M134.424204,26.8819984 L133.958276,28.0806329 L132.083067,28.0806329 L134.697662,21.1729805 L136.624363,21.1729805 L139.184966,28.0806329 L137.301758,28.0806329 L136.857827,26.8819984 L134.424204,26.8819984 L134.424204,26.8819984 Z" id="Fill-32" fill="#002855"></path>
                <polyline id="Fill-33" fill="#002855" points="142.51395 26.5602275 144.634622 26.5602275 144.634622 28.0816495 140.749224 28.0816495 140.749224 21.1729805 142.51395 21.1729805 142.51395 26.5602275"></polyline>
                <path d="M3.55848823,35.3634304 L3.54549025,35.3634304 L3.02407107,36.9346684 L4.07390834,36.9346684 L3.55848823,35.3634304 Z M2.67562507,37.915739 L2.34267668,38.7717613 L1.00388419,38.7717613 L2.87059485,33.8394667 L4.24638161,33.8394667 L6.07459824,38.7717613 L4.72980668,38.7717613 L4.41285581,37.915739 L2.67562507,37.915739 L2.67562507,37.915739 Z" id="Fill-34" fill="#002855"></path>
                <polyline id="Fill-35" fill="#002855" points="6.69150262 33.8394667 7.95130735 33.8394667 10.263449 36.8548611 10.2769469 36.8548611 10.2769469 33.8394667 11.5357518 33.8394667 11.5357518 38.7717613 10.2769469 38.7717613 7.96730487 35.7492504 7.95130735 35.7492504 7.95130735 38.7717613 6.69150262 38.7717613 6.69150262 33.8394667"></polyline>
                <path d="M13.8793885,37.6859753 L14.1658441,37.6859753 C14.353815,37.6859753 14.5327872,37.659034 14.7012611,37.606168 C14.869735,37.5527937 15.0177121,37.4689198 15.1441925,37.3565796 C15.2711728,37.2442394 15.3721571,37.1003829 15.4471455,36.9270435 C15.5226338,36.7531957 15.560128,36.5463067 15.560128,36.3053598 C15.560128,36.0842377 15.5261333,35.8870069 15.4581438,35.7157008 C15.3901543,35.544903 15.2951691,35.4005382 15.172688,35.2836231 C15.0497071,35.1661996 14.9042297,35.0772424 14.7357558,35.0167515 C14.5672819,34.9557523 14.3813107,34.9247444 14.1778422,34.9247444 L13.8793885,34.9247444 L13.8793885,37.6859753 Z M12.6200837,33.8394667 L14.4078066,33.8394667 C14.6317719,33.8394667 14.8487383,33.867933 15.0582058,33.925374 C15.2676733,33.9828149 15.4636429,34.0646555 15.6471145,34.1698791 C15.8305861,34.2751028 15.9970603,34.4026928 16.1480369,34.5516325 C16.2990135,34.7010806 16.4274936,34.8673034 16.5349769,35.0503011 C16.6409605,35.233807 16.7244475,35.4305295 16.7844382,35.6430101 C16.8444289,35.8539657 16.8734244,36.0750878 16.8734244,36.3053598 C16.8734244,36.5356319 16.8444289,36.756754 16.7844382,36.9687263 C16.7244475,37.1801902 16.6404605,37.3784376 16.5329772,37.5609269 C16.4249939,37.7439246 16.295514,37.9101474 16.1445374,38.0590872 C15.9940607,38.2080269 15.8275865,38.3351086 15.6456147,38.4408406 C15.463143,38.5460642 15.2676733,38.6279048 15.0582058,38.6853457 C14.8487383,38.7427867 14.6317719,38.7717613 14.4078066,38.7717613 L12.6200837,38.7717613 L12.6200837,33.8394667 L12.6200837,33.8394667 Z" id="Fill-36" fill="#002855"></path>
                <polyline id="Fill-37" fill="#002855" points="22.979478 33.3850226 22.979478 34.5394327 24.9726691 34.5394327 24.9726691 36.0608547 22.979478 36.0608547 22.979478 37.2508476 25.082652 37.2508476 25.082652 38.771253 21.2152515 38.771253 21.2152515 31.8630923 25.082652 31.8630923 25.082652 33.3850226 22.979478 33.3850226"></polyline>
                <polyline id="Fill-38" fill="#002855" points="27.0658446 31.8636006 28.8300712 31.8636006 32.0680693 36.0872877 32.0860665 36.0872877 32.0860665 31.8636006 33.850793 31.8636006 33.850793 38.7717613 32.0860665 38.7717613 28.8520678 34.5394327 28.8300712 34.5394327 28.8300712 38.7717613 27.0658446 38.7717613 27.0658446 31.8636006"></polyline>
                <polyline id="Fill-39" fill="#002855" points="38.7135392 36.0608547 40.3632835 31.8630923 42.2819861 31.8630923 39.3824356 38.7722696 38.0091484 38.7722696 35.1530911 31.8630923 37.0767929 31.8630923 38.7135392 36.0608547"></polyline>
                <polygon id="Fill-40" fill="#002855" points="43.5897834 38.7707446 45.3545099 38.7707446 45.3545099 31.8630923 43.5897834 31.8630923"></polygon>
                <path d="M49.16042,34.9603272 L49.3318934,34.9603272 C49.4758711,34.9603272 49.6208486,34.9501607 49.7673259,34.9308443 C49.9143031,34.9110195 50.0457828,34.8708617 50.1637645,34.8098625 C50.2802464,34.7488633 50.3762315,34.6624478 50.4492202,34.5506159 C50.5232088,34.4377673 50.5597031,34.2888276 50.5597031,34.1002384 C50.5597031,33.9126658 50.5232088,33.7622011 50.4492202,33.6488442 C50.3762315,33.5354873 50.2802464,33.4480551 50.1637645,33.3865476 C50.0457828,33.3255484 49.9143031,33.2853906 49.7673259,33.2665825 C49.6208486,33.2467577 49.4758711,33.2365912 49.3318934,33.2365912 L49.16042,33.2365912 L49.16042,34.9603272 Z M53.0453178,38.7717613 L50.8451589,38.7717613 L49.1819167,36.114229 L49.16042,36.114229 L49.16042,38.7717613 L47.3956935,38.7717613 L47.3956935,31.8636006 L50.0357843,31.8636006 C50.3702325,31.8636006 50.6821841,31.9052834 50.9706394,31.988649 C51.2600945,32.0725229 51.5100558,32.2006213 51.7210231,32.3734524 C51.9324903,32.5467918 52.0974647,32.7663889 52.2179461,33.0332605 C52.3379275,33.3006404 52.3984181,33.6188529 52.3984181,33.9889148 C52.3984181,34.22732 52.3664231,34.4550504 52.3019331,34.6710893 C52.2374431,34.8876365 52.1419579,35.0818173 52.0154775,35.2546484 C51.889497,35.4279879 51.7340211,35.574386 51.5490498,35.6938428 C51.3645783,35.8122829 51.1516114,35.8951401 50.9116485,35.9393646 L53.0453178,38.7717613 L53.0453178,38.7717613 Z" id="Fill-41" fill="#002855"></path>
                <path d="M57.6476045,33.3753644 C57.3831455,33.3753644 57.1356838,33.4256887 56.9037198,33.5253208 C56.6717557,33.6259695 56.4687872,33.7596594 56.2938143,33.9284239 C56.1198413,34.0971884 55.9813628,34.2908609 55.8808783,34.5099497 C55.7793941,34.7295469 55.7289019,34.9582939 55.7289019,35.1972075 C55.7289019,35.4945787 55.7793941,35.7700918 55.8808783,36.0227302 C55.9813628,36.2743519 56.1198413,36.4914074 56.2938143,36.6759301 C56.4687872,36.859436 56.6717557,37.0012592 56.9037198,37.1044495 C57.1356838,37.2081482 57.3831455,37.2594892 57.6476045,37.2594892 C57.9110636,37.2594892 58.1600251,37.2081482 58.3934889,37.1044495 C58.6264528,37.0012592 58.8294213,36.859436 59.0023945,36.6759301 C59.1763675,36.4914074 59.3128464,36.2743519 59.4143306,36.0227302 C59.515315,35.7700918 59.5658072,35.4945787 59.5658072,35.1972075 C59.5658072,34.9582939 59.515315,34.7295469 59.4143306,34.5099497 C59.3128464,34.2908609 59.1763675,34.0971884 59.0023945,33.9284239 C58.8294213,33.7596594 58.6264528,33.6259695 58.3934889,33.5253208 C58.1600251,33.4256887 57.9110636,33.3753644 57.6476045,33.3753644 M57.6476045,31.6348536 C57.973054,31.6348536 58.2925045,31.6750114 58.6044562,31.7543104 C58.9169077,31.833101 59.2123619,31.9459495 59.4908188,32.0923477 C59.7697756,32.2382374 60.0262358,32.4161518 60.2606995,32.6265991 C60.495663,32.8370464 60.6976317,33.0734183 60.8661056,33.3377482 C61.0350794,33.6015698 61.167059,33.8882661 61.2625442,34.1993621 C61.3575295,34.5094414 61.405522,34.8383288 61.405522,35.1875493 C61.405522,35.748742 61.3120365,36.2621521 61.1260653,36.728796 C60.9390943,37.1959483 60.6791346,37.5970181 60.3451864,37.9325138 C60.0102383,38.2690261 59.6132998,38.5297977 59.1543709,38.7178786 C58.6949421,38.9054512 58.1930199,39 57.6476045,39 C57.2836609,39 56.9382144,38.9578089 56.6107652,38.8719017 C56.2843158,38.7875194 55.9813628,38.6660293 55.7044057,38.5074314 C55.4274486,38.3498501 55.1764875,38.1582109 54.9525222,37.9325138 C54.728057,37.707325 54.5370866,37.4531617 54.3801109,37.1700237 C54.2236352,36.8868857 54.1026539,36.5783313 54.0176671,36.2458856 C53.9321804,35.9139482 53.889687,35.5606611 53.889687,35.1875493 C53.889687,34.8383288 53.9376795,34.5094414 54.0321649,34.1993621 C54.1276501,33.8882661 54.2606295,33.6015698 54.431103,33.3377482 C54.6010767,33.0734183 54.8025455,32.8370464 55.0355094,32.6265991 C55.2689732,32.4161518 55.5249335,32.2382374 55.8033903,32.0923477 C56.0823471,31.9459495 56.3778013,31.833101 56.6902529,31.7543104 C57.0027044,31.6750114 57.321655,31.6348536 57.6476045,31.6348536" id="Fill-43" fill="#002855"></path>
                <polyline id="Fill-45" fill="#002855" points="63.2822311 31.8636006 65.0469576 31.8636006 68.2854556 36.0872877 68.3029529 36.0872877 68.3029529 31.8636006 70.0671795 31.8636006 70.0671795 38.7717613 68.3029529 38.7717613 65.0689542 34.5394327 65.0469576 34.5394327 65.0469576 38.7717613 63.2822311 38.7717613 63.2822311 31.8636006"></polyline>
                <polyline id="Fill-46" fill="#002855" points="72.8367502 31.8636006 74.5749808 31.8636006 75.9567666 35.5550695 77.4130409 31.8636006 79.173268 31.8636006 80.1986091 38.7717613 78.4343826 38.7717613 77.9364597 34.7941044 77.9189624 34.7941044 76.2867154 38.7717613 75.5868239 38.7717613 74.0245661 34.7941044 74.0075687 34.7941044 73.4396567 38.7717613 71.6849287 38.7717613 72.8367502 31.8636006"></polyline>
                <polyline id="Fill-47" fill="#002855" points="83.6030814 33.3850226 83.6030814 34.5394327 85.5967724 34.5394327 85.5967724 36.0608547 83.6030814 36.0608547 83.6030814 37.2508476 85.7057555 37.2508476 85.7057555 38.771253 81.8383549 38.771253 81.8383549 31.8630923 85.7057555 31.8630923 85.7057555 33.3850226 83.6030814 33.3850226"></polyline>
                <polyline id="Fill-48" fill="#002855" points="87.6889481 31.8636006 89.4541745 31.8636006 92.6921726 36.0872877 92.70917 36.0872877 92.70917 31.8636006 94.4743964 31.8636006 94.4743964 38.7717613 92.70917 38.7717613 89.4756712 34.5394327 89.4541745 34.5394327 89.4541745 38.7717613 87.6889481 38.7717613 87.6889481 31.8636006"></polyline>
                <polyline id="Fill-49" fill="#002855" points="99.1236757 38.7717613 97.3594492 38.7717613 97.3594492 33.3850226 95.8981757 33.3850226 95.8981757 31.8636006 100.584949 31.8636006 100.584949 33.3850226 99.1236757 33.3850226 99.1236757 38.7717613"></polyline>
                <path d="M104.545335,33.9975564 L104.527838,33.9975564 L103.797451,36.1986112 L105.266724,36.1986112 L104.545335,33.9975564 Z M103.308527,37.5721101 L102.842599,38.7717613 L100.96789,38.7717613 L103.581985,31.8636006 L105.509186,31.8636006 L108.070289,38.7717613 L106.186581,38.7717613 L105.74265,37.5721101 L103.308527,37.5721101 L103.308527,37.5721101 Z" id="Fill-50" fill="#002855"></path>
                <polyline id="Fill-51" fill="#002855" points="111.398273 37.2508476 113.519444 37.2508476 113.519444 38.7722696 109.633547 38.7722696 109.633547 31.8630923 111.398273 31.8630923 111.398273 37.2508476"></polyline>
                <path d="M122.718519,33.6396943 C122.554044,33.5029544 122.372072,33.3921392 122.173103,33.3087736 C121.972634,33.2248997 121.764666,33.1832169 121.5477,33.1832169 C121.465213,33.1832169 121.380726,33.1959251 121.29224,33.2187998 C121.204753,33.2431994 121.122766,33.2792906 121.048777,33.326565 C120.973289,33.3748561 120.911299,33.4348386 120.863306,33.5080377 C120.815314,33.5812367 120.790817,33.6651106 120.790817,33.7601678 C120.790817,33.8618331 120.817313,33.948757 120.870305,34.0199227 C120.922797,34.0915968 120.989287,34.152596 121.068274,34.2034287 C121.147262,34.253753 121.232249,34.2969608 121.323235,34.3310187 C121.413721,34.3655849 121.498208,34.3945596 121.574696,34.4179426 L122.022626,34.5572241 C122.26059,34.6288982 122.481055,34.7137888 122.685024,34.8144375 C122.888492,34.9140695 123.066465,35.0386096 123.215442,35.1880576 C123.365418,35.3369974 123.4829,35.5138951 123.570387,35.7182424 C123.655873,35.9220815 123.699866,36.1650617 123.699866,36.4451497 C123.699866,36.6149308 123.688868,36.786237 123.666872,36.9570348 C123.644875,37.1288492 123.606381,37.295072 123.552389,37.4562116 C123.497898,37.6173512 123.425409,37.7703576 123.334423,37.9152307 C123.243437,38.0595955 123.129955,38.1897271 122.994976,38.306134 C122.728517,38.536406 122.427564,38.7016122 122.091116,38.8027692 C121.755168,38.9049429 121.413721,38.9552672 121.068274,38.9552672 C120.639841,38.9552672 120.221406,38.8856265 119.814469,38.7468533 C119.406532,38.6080801 119.028091,38.4154242 118.679645,38.1678691 L119.435527,36.7176128 C119.54751,36.8172449 119.663492,36.909252 119.783474,36.9956676 C119.903455,37.0820831 120.029935,37.1578238 120.160915,37.2239063 C120.294394,37.2889721 120.429373,37.3408215 120.570851,37.3779293 C120.71133,37.4150372 120.856807,37.4343536 121.006784,37.4343536 C121.109268,37.4343536 121.212252,37.4206288 121.314736,37.3941958 C121.41672,37.3667461 121.509206,37.3250633 121.589194,37.2686391 C121.670681,37.2111981 121.736171,37.1395241 121.785663,37.0515835 C121.835655,36.9631347 121.860152,36.8584194 121.860152,36.7364209 C121.860152,36.6108642 121.822158,36.5046239 121.745669,36.4187167 C121.669681,36.3317928 121.576196,36.2575771 121.465713,36.1960696 C121.35623,36.1355787 121.240248,36.0857627 121.116767,36.0466215 C120.993286,36.008497 120.884803,35.9754558 120.790817,35.9485145 C120.512361,35.8676905 120.2599,35.7838166 120.033935,35.6979094 C119.80847,35.6109855 119.615999,35.4971203 119.455524,35.3558055 C119.295549,35.2144906 119.171568,35.0355596 119.084082,34.8210457 C118.995596,34.6060235 118.951103,34.331527 118.951103,33.997048 C118.951103,33.6488442 119.009094,33.33114 119.124576,33.0444437 C119.241557,32.7582557 119.404032,32.5142589 119.6115,32.3129615 C119.819968,32.1121724 120.06693,31.9561161 120.352885,31.8453008 C120.639341,31.7349939 120.952292,31.6800947 121.29224,31.6800947 C121.462713,31.6800947 121.641186,31.6933111 121.829156,31.7202525 C122.016627,31.7471938 122.203098,31.7853183 122.38807,31.8341177 C122.573041,31.8834254 122.753513,31.9434079 122.928986,32.013557 C123.104959,32.0837061 123.269433,32.1619884 123.422409,32.248404 L122.718519,33.6396943" id="Fill-52" fill="#002855"></path>
                <path d="M130.227355,34.1810623 C130.136869,34.0555056 130.032385,33.9467237 129.917403,33.8526832 C129.801921,33.7581344 129.67694,33.6793438 129.542961,33.6147863 C129.409981,33.5507371 129.270003,33.5034627 129.123026,33.4699132 C128.977049,33.4368719 128.828072,33.4206055 128.678095,33.4206055 C128.408637,33.4206055 128.162675,33.4699132 127.939709,33.5680202 C127.716244,33.6666356 127.525274,33.8023589 127.367798,33.97519 C127.208823,34.1480211 127.085842,34.3508434 126.997855,34.5841654 C126.909869,34.8169791 126.865876,35.0675842 126.865876,35.3354724 C126.865876,35.6099688 126.909869,35.8615906 126.997855,36.0913543 C127.085842,36.321118 127.209822,36.5193654 127.371297,36.6845716 C127.532772,36.8497778 127.726742,36.9794011 127.952207,37.0739499 C128.178172,37.167482 128.429133,37.2142481 128.705091,37.2142481 C128.848568,37.2142481 128.991546,37.1974733 129.134024,37.1634154 C129.276502,37.1283409 129.412981,37.0795415 129.542961,37.0160007 C129.67444,36.9519515 129.797421,36.8741775 129.912404,36.7852203 C130.028386,36.6957548 130.134369,36.5945978 130.227355,36.4807326 L130.227355,38.6329881 C130.080377,38.6777208 129.943399,38.719912 129.813919,38.7605781 C129.684939,38.8002276 129.558958,38.8353021 129.435477,38.8632601 C129.312497,38.8917264 129.188016,38.9146011 129.063535,38.9308676 C128.939054,38.947134 128.808075,38.9552672 128.670096,38.9552672 C128.19417,38.9552672 127.73924,38.8668184 127.303308,38.6914457 C126.867875,38.5155646 126.472437,38.2644512 126.117492,37.9391221 C125.74205,37.5934599 125.466593,37.2005233 125.29062,36.7603123 C125.114647,36.3206096 125.027161,35.8422742 125.027161,35.3263225 C125.027161,34.852562 125.111648,34.3971012 125.281621,33.9619735 C125.451595,33.5263374 125.701056,33.1389925 126.030005,32.7984135 C126.196979,32.6255824 126.380951,32.4695261 126.57942,32.3307529 C126.778889,32.1929964 126.989857,32.0745562 127.211322,31.9774658 C127.433288,31.8808837 127.661752,31.806668 127.899715,31.7558353 C128.137679,31.705511 128.375142,31.6800947 128.612605,31.6800947 C128.897561,31.6800947 129.172018,31.7105943 129.435477,31.7721018 C129.699437,31.833101 129.964395,31.9184999 130.227355,32.0288068 L130.227355,34.1810623" id="Fill-53" fill="#002855"></path>
                <polygon id="Fill-54" fill="#002855" points="132.219546 38.7707446 133.984772 38.7707446 133.984772 31.8630923 132.219546 31.8630923"></polygon>
                <polyline id="Fill-55" fill="#002855" points="137.790682 33.3850226 137.790682 34.5394327 139.783374 34.5394327 139.783374 36.0608547 137.790682 36.0608547 137.790682 37.2508476 139.893856 37.2508476 139.893856 38.771253 136.025956 38.771253 136.025956 31.8630923 139.893856 31.8630923 139.893856 33.3850226 137.790682 33.3850226"></polyline>
                <polyline id="Fill-56" fill="#002855" points="142.052522 31.8636006 143.817248 31.8636006 147.056246 36.0872877 147.072744 36.0872877 147.072744 31.8636006 148.83847 31.8636006 148.83847 38.7717613 147.072744 38.7717613 143.839745 34.5394327 143.817248 34.5394327 143.817248 38.7717613 142.052522 38.7717613 142.052522 31.8636006"></polyline>
                <path d="M155.55143,34.1810623 C155.460944,34.0555056 155.35696,33.9467237 155.241478,33.8526832 C155.125995,33.7581344 155.001015,33.6793438 154.867036,33.6147863 C154.734556,33.5507371 154.593578,33.5034627 154.446601,33.4699132 C154.300623,33.4368719 154.152646,33.4206055 154.00267,33.4206055 C153.733211,33.4206055 153.48675,33.4699132 153.263284,33.5680202 C153.040319,33.6666356 152.849348,33.8023589 152.691873,33.97519 C152.532897,34.1480211 152.409916,34.3508434 152.32193,34.5841654 C152.233944,34.8169791 152.189951,35.0675842 152.189951,35.3354724 C152.189951,35.6099688 152.233944,35.8615906 152.32193,36.0913543 C152.409916,36.321118 152.533897,36.5193654 152.695372,36.6845716 C152.857347,36.8497778 153.050817,36.9794011 153.276782,37.0739499 C153.503247,37.167482 153.753208,37.2142481 154.029165,37.2142481 C154.173143,37.2142481 154.315621,37.1974733 154.458099,37.1634154 C154.600077,37.1283409 154.736556,37.0795415 154.867036,37.0160007 C154.998015,36.9519515 155.121496,36.8741775 155.236478,36.7852203 C155.35246,36.6957548 155.457944,36.5945978 155.55143,36.4807326 L155.55143,38.6329881 C155.403952,38.6777208 155.266974,38.719912 155.137494,38.7605781 C155.008514,38.8002276 154.882533,38.8353021 154.759552,38.8632601 C154.636571,38.8917264 154.512091,38.9146011 154.38711,38.9308676 C154.262629,38.947134 154.132149,38.9552672 153.994171,38.9552672 C153.518245,38.9552672 153.062815,38.8668184 152.627383,38.6914457 C152.19195,38.5155646 151.796512,38.2644512 151.442066,37.9391221 C151.066125,37.5934599 150.790168,37.2005233 150.614195,36.7603123 C150.438222,36.3206096 150.350736,35.8422742 150.350736,35.3263225 C150.350736,34.852562 150.435223,34.3971012 150.605196,33.9619735 C150.77567,33.5263374 151.025631,33.1389925 151.35358,32.7984135 C151.521054,32.6255824 151.704526,32.4695261 151.903495,32.3307529 C152.102964,32.1929964 152.313431,32.0745562 152.534897,31.9774658 C152.756863,31.8808837 152.986327,31.806668 153.22429,31.7558353 C153.461753,31.705511 153.698717,31.6800947 153.93718,31.6800947 C154.221136,31.6800947 154.495593,31.7105943 154.759552,31.7721018 C155.024011,31.833101 155.28797,31.9184999 155.55143,32.0288068 L155.55143,34.1810623" id="Fill-57" fill="#002855"></path>
                <polyline id="Fill-58" fill="#002855" points="159.302348 33.3850226 159.302348 34.5394327 161.296039 34.5394327 161.296039 36.0608547 159.302348 36.0608547 159.302348 37.2508476 161.405022 37.2508476 161.405022 38.771253 157.537622 38.771253 157.537622 31.8630923 161.405022 31.8630923 161.405022 33.3850226 159.302348 33.3850226"></polyline>
                <path d="M167.018652,33.6396943 C166.854178,33.5029544 166.672206,33.3921392 166.472737,33.3087736 C166.273268,33.2248997 166.0658,33.1832169 165.848334,33.1832169 C165.765846,33.1832169 165.680859,33.1959251 165.592873,33.2187998 C165.504887,33.2431994 165.423399,33.2792906 165.348911,33.326565 C165.274422,33.3748561 165.211932,33.4348386 165.16344,33.5080377 C165.115447,33.5812367 165.090951,33.6651106 165.090951,33.7601678 C165.090951,33.8618331 165.117447,33.948757 165.170939,34.0199227 C165.22343,34.0915968 165.28892,34.152596 165.368908,34.2034287 C165.447396,34.253753 165.532382,34.2969608 165.623368,34.3310187 C165.714354,34.3655849 165.797841,34.3945596 165.874829,34.4179426 L166.32276,34.5572241 C166.560723,34.6288982 166.781689,34.7137888 166.985657,34.8144375 C167.189626,34.9140695 167.366598,35.0386096 167.515575,35.1880576 C167.665552,35.3369974 167.783534,35.5138951 167.86952,35.7182424 C167.956507,35.9220815 168,36.1650617 168,36.4451497 C168,36.6149308 167.988502,36.786237 167.966505,36.9570348 C167.945009,37.1288492 167.906514,37.295072 167.852523,37.4562116 C167.797531,37.6173512 167.725543,37.7703576 167.634557,37.9152307 C167.543571,38.0595955 167.430588,38.1897271 167.296109,38.306134 C167.028651,38.536406 166.727697,38.7016122 166.391249,38.8027692 C166.055801,38.9049429 165.714354,38.9552672 165.368908,38.9552672 C164.940474,38.9552672 164.522039,38.8856265 164.114602,38.7468533 C163.707165,38.6080801 163.328224,38.4154242 162.979778,38.1678691 L163.736161,36.7176128 C163.847644,36.8172449 163.963126,36.909252 164.083607,36.9956676 C164.203588,37.0820831 164.330069,37.1578238 164.462048,37.2239063 C164.594528,37.2889721 164.730507,37.3408215 164.871485,37.3779293 C165.011963,37.4150372 165.156941,37.4343536 165.306917,37.4343536 C165.409402,37.4343536 165.512386,37.4206288 165.61487,37.3941958 C165.717354,37.3667461 165.80934,37.3250633 165.889827,37.2686391 C165.970815,37.2111981 166.035305,37.1395241 166.085797,37.0515835 C166.135289,36.9631347 166.160785,36.8584194 166.160785,36.7364209 C166.160785,36.6108642 166.122791,36.5046239 166.046303,36.4187167 C165.969815,36.3317928 165.876829,36.2575771 165.766346,36.1960696 C165.656863,36.1355787 165.540381,36.0857627 165.4174,36.0466215 C165.294419,36.008497 165.184936,35.9754558 165.090951,35.9485145 C164.812494,35.8676905 164.560033,35.7838166 164.334568,35.6979094 C164.108103,35.6109855 163.915133,35.4971203 163.756158,35.3558055 C163.595183,35.2144906 163.471702,35.0355596 163.383216,34.8210457 C163.296229,34.6060235 163.252236,34.331527 163.252236,33.997048 C163.252236,33.6488442 163.309727,33.33114 163.425209,33.0444437 C163.541691,32.7582557 163.704166,32.5142589 163.912134,32.3129615 C164.120601,32.1121724 164.367063,31.9561161 164.653019,31.8453008 C164.939974,31.7349939 165.252926,31.6800947 165.592873,31.6800947 C165.762847,31.6800947 165.941819,31.6933111 166.12979,31.7202525 C166.317761,31.7471938 166.503732,31.7853183 166.688703,31.8341177 C166.873175,31.8834254 167.054147,31.9434079 167.229619,32.013557 C167.405092,32.0837061 167.569567,32.1619884 167.722543,32.248404 L167.018652,33.6396943" id="Fill-59" fill="#002855"></path>
            </g>
        </g>
    </g>
</svg>