<?xml version="1.0" encoding="UTF-8"?>
<svg width="196px" height="93px" viewBox="0 0 196 93" version="1.1" xmlns="http://www.w3.org/2000/svg" xmlns:xlink="http://www.w3.org/1999/xlink">
    <!-- Generator: Sketch 62 (91390) - https://sketch.com -->
    <title>Group 12</title>
    <desc>Created with Sketch.</desc>
    <g id="Current" stroke="none" stroke-width="1" fill="none" fill-rule="evenodd">
        <g id="person" transform="translate(-479.000000, -169.000000)" fill="#FFFFFF">
            <g id="Group-12" transform="translate(479.000000, 169.000000)">
                <path d="M31.2122995,31.4501595 C30.7397995,32.5911594 30.5136995,33.1497594 30.2784995,33.7041594 C30.0376995,34.2711594 29.7604995,34.8241594 29.5483995,35.4023594 C28.9155995,37.1229594 29.4370995,38.5579593 30.9770995,39.1179593 C32.5940994,39.7059593 33.5775994,38.8162593 34.2747994,37.4813594 C34.9404994,36.2059594 35.5011994,34.8710594 36.2298994,33.6341594 C39.0256993,28.8902595 42.8308993,25.4539596 48.4266992,24.3668596 C50.7730991,23.9104596 51.1846991,24.3444596 50.8822991,26.7713595 C50.0338991,33.5928594 45.9619992,38.0182594 40.2681993,41.2732593 C37.8643994,42.6480593 36.1962994,45.3696592 37.2308994,47.7531592 C38.4418993,50.5440591 36.3824994,54.2722591 36.2466994,54.7020591 C34.8683994,59.075659 23.8013996,63.4996589 22.6862996,63.7894589 C21.0447996,64.2171589 19.3290997,64.7631589 17.6756997,64.6763589 C11.0459998,64.3284589 6.45119989,60.074559 5.18209991,53.4056591 C4.17549993,48.1157592 7.39129987,42.4198593 12.9520998,39.7773593 C18.2125997,37.2776594 23.5024996,34.8381594 28.7846995,32.3832594 C29.3831995,32.1053595 30.0180995,31.9051595 31.2122995,31.4501595 M187.615397,54.6922591 C192.849997,52.7833591 195.619197,47.5480592 194.985697,41.5672593 C194.699397,38.8617593 193.806897,36.2584594 191.475897,34.3334594 C189.620897,32.8032594 186.382697,31.6797595 185.218597,31.4284595 C182.590797,30.8614595 182.075597,32.1004595 180.360597,31.4627595 C178.863997,30.9069595 178.502097,29.0141595 178.309597,28.5899595 C174.497397,20.1780597 165.721497,15.5447597 156.556397,16.9223597 C154.997497,17.1561597 154.698597,16.2727597 154.300297,15.1919597 C151.169197,6.66735989 143.302598,1.14995998 134.335598,1.39635998 C129.621798,1.52585997 125.300698,3.05675995 121.694298,6.19275989 C120.480498,7.24905988 119.699998,7.26445988 118.416198,6.18715989 C109.827198,-1.02283998 97.1039983,-2.82323995 89.7427985,5.6201599 C88.7445985,6.76395988 87.9542985,6.93615988 86.5836985,6.36565989 C83.7598986,5.19035991 80.9318986,4.63875992 78.1199987,4.71435992 C75.3423987,4.78855992 72.5808988,5.47525991 69.8571988,6.77795988 C68.3423988,7.50245987 67.6367988,7.17415988 66.6889989,5.8924599 C61.322799,-1.36443998 50.7492991,0.154559997 44.1244992,6.0464599 C42.2169993,7.74255987 40.6328993,8.63785985 37.7908994,8.54055985 C29.4776995,8.25565986 23.5878996,16.7438597 26.1113996,24.6867596 C26.9737995,27.4027595 26.9751995,27.4055595 24.4201996,28.6109595 C19.5187997,30.9237595 14.5228998,33.0580594 9.73629983,35.5878594 C3.46429994,38.9023593 0.100099998,44.3273592 0.000227230693,51.4176591 C-0.179899997,64.5650589 12.9359998,73.4067587 25.1376996,68.5067588 C26.7574995,67.8564588 28.3639995,67.1452589 30.1160995,66.3878589 L30.1160995,92.3249584 L36.9109994,92.3249584 L36.9109994,79.1180587 L52.3669991,79.1180587 L52.3669991,73.1365588 L36.9109994,73.1365588 L36.9109994,66.3892589 L52.7022991,66.3892589 L52.7022991,60.407759 L37.6851994,60.407759 C38.7673993,57.978059 44.1244992,53.029541 42.0478516,48.7878418 C40.8415527,46.7624512 42.1994993,45.9835592 43.5840993,45.1708592 C44.7642992,44.4778592 45.9178992,43.7106593 46.9769992,42.8454593 C53.6731991,37.3784594 57.082199,30.5373595 55.7311991,21.7124596 C55.4560991,19.9155597 54.5131991,19.1007597 52.7176991,19.0069597 C48.8004992,18.8032597 44.9784992,19.2610597 41.5862993,21.2784596 C38.9619993,22.8387596 36.5805994,24.8085596 33.8456994,26.7713595 C33.4396994,26.3891596 32.7158994,25.8690596 32.1999995,25.1914596 C30.2756995,22.6658596 30.2455995,19.2183597 32.0459995,16.7564597 C33.9632994,14.1342598 37.1510994,13.0800598 40.2758993,14.1783598 C42.2050993,14.8559597 43.8003993,15.0498597 45.0365992,12.9316598 C47.3367992,8.98855985 50.8983991,7.16225988 55.4000991,7.67115987 C59.732399,8.16045986 62.6093989,7.89795987 64.1773989,11.9831598 C65.1643989,14.5549598 66.6875989,14.9539597 68.9499988,13.3523598 C71.9928988,11.1977598 75.0875987,10.0833598 78.2347987,10.0028598 C81.1418986,9.92865983 84.0937986,10.7371598 87.0911985,12.4241598 C89.5936985,13.8332598 90.4175985,13.6295598 91.9827984,11.2222598 C97.8753983,2.15585996 109.766998,3.98285993 116.982598,11.9768598 C119.686698,14.9728597 120.505698,14.9168597 123.265098,11.8046598 C126.404598,8.26405986 130.471598,6.43355989 135.120298,6.56095989 C142.804898,6.77235988 148.397197,11.7416598 150.129697,19.4101597 C150.954997,23.0599596 151.629797,23.4680596 155.208197,22.4824596 C164.180797,20.0114597 172.757897,25.1858596 174.750097,34.2718594 C175.543197,37.8880594 176.462297,38.3822593 179.867097,37.0249594 C182.762997,35.8699594 185.785597,36.4530594 187.847797,38.5642593 C189.874997,40.6390593 190.402797,43.6588593 189.209297,46.3538592 C187.948597,49.1993592 185.613397,50.6021591 182.296797,50.5055591 C179.444997,50.4215591 178.306097,51.9258591 179.141197,54.6775591 C179.239897,55.0044591 179.353297,55.3278591 179.454797,55.6554591 C179.942697,57.236759 180.142897,58.836259 180.112797,60.407759 L171.143697,60.407759 L171.143697,92.3249584 L193.729197,92.3249584 L193.729197,86.3434585 L177.938597,86.3434585 L177.938597,79.1180587 L193.394597,79.1180587 L193.394597,73.1365588 L177.938597,73.1365588 L177.938597,66.3892589 L193.729197,66.3892589 L193.729197,60.407759 L185.186397,60.407759 C185.189897,59.849159 185.180097,59.288459 185.140897,58.718659 C184.991097,56.547959 185.417397,55.4944591 187.615397,54.6922591 Z" id="Fill-1"></path>
                <polygon id="Fill-3" points="64.2363389 60.407899 57.441439 60.407899 57.441439 92.3250984 77.7302387 92.3250984 77.7302387 86.3435985 64.2363389 86.3435985"></polygon>
                <polygon id="Fill-5" points="82.4695186 92.3248884 105.055018 92.3248884 105.055018 86.3433885 89.2644185 86.3433885 89.2644185 79.1179887 104.720418 79.1179887 104.720418 73.1364888 89.2644185 73.1364888 89.2644185 66.3891889 105.055018 66.3891889 105.055018 60.407689 82.4695186 60.407689"></polygon>
                <polygon id="Fill-7" points="110.368018 92.3248884 132.954218 92.3248884 132.954218 86.3433885 117.162918 86.3433885 117.162918 79.1179887 132.618918 79.1179887 132.618918 73.1364888 117.162918 73.1364888 117.162918 66.3891889 132.954218 66.3891889 132.954218 60.407689 110.368018 60.407689"></polygon>
                <g id="Group-11" transform="translate(18.499998, 41.299099)">
                    <path d="M135.22357,24.6117099 C138.52547,24.6117099 141.39617,26.6690099 142.73597,29.2534098 L148.573969,26.3820099 C146.32487,22.4102099 142.25787,18.58261 135.22357,18.58261 C125.65317,18.58261 118.23597,25.2816099 118.23597,35.0914097 C118.23597,44.9005095 125.65317,51.6002094 135.22357,51.6002094 C142.25787,51.6002094 146.27727,47.7243095 148.573969,43.7525096 L142.73597,40.9294096 C141.39617,43.5607096 138.52547,45.5704095 135.22357,45.5704095 C129.43387,45.5704095 125.22267,41.1205096 125.22267,35.0914097 C125.22267,29.0616098 129.43387,24.6117099 135.22357,24.6117099" id="Fill-9"></path>
                    <circle id="Oval" cx="4.5" cy="4.5" r="4"></circle>
                </g>
            </g>
        </g>
    </g>
</svg>