<?xml version="1.0" encoding="UTF-8"?>
<svg width="67px" height="54px" viewBox="0 0 67 54" version="1.1" xmlns="http://www.w3.org/2000/svg" xmlns:xlink="http://www.w3.org/1999/xlink">
    <!-- Generator: Sketch 63.1 (92452) - https://sketch.com -->
    <title>fleece</title>
    <desc>Created with Sketch.</desc>
    <g id="Current" stroke="none" stroke-width="1" fill="none" fill-rule="evenodd">
        <g id="person-copy-2" transform="translate(-557.000000, -67.000000)">
            <g id="fleece" transform="translate(557.000000, 67.000000)">
                <path d="M55.4753809,20.6263255 C56.7944311,20.6149909 58.0922113,20.4300675 59.357928,20.0768608 C60.8518991,19.659606 62.3265051,19.1811286 63.6141266,18.280687 C63.9582542,18.0398785 64.3198422,17.7758368 64.25635,17.3008131 C64.1960324,16.8477666 63.7817459,16.6826228 63.4093643,16.5981672 C62.5160292,16.395976 61.6134878,16.2226692 60.7068194,16.0930031 C58.3077673,15.7501571 55.9058579,15.710284 53.5093454,16.1294226 C52.611566,16.2867173 51.7239452,16.4816874 50.9731501,17.0352016 C50.3687045,17.4813409 50.2274344,18.0769259 50.5341017,18.7572805 C50.8944198,19.5572545 51.6001355,19.928671 52.3810893,20.1867473 C53.382996,20.5179768 54.4223631,20.6284912 55.4753809,20.6263255 M9.80704011,15.7586341 C8.36576753,15.898033 6.91909811,15.9988146 5.48544459,16.1934708 C4.70861772,16.2989618 3.93687022,16.5162232 3.19528151,16.7742996 C2.6486138,16.9648742 2.5803597,17.4452354 2.94797945,17.8929445 C3.04194788,18.0078544 3.15559889,18.1108338 3.27464674,18.2009407 C4.20925169,18.90861 5.29084105,19.3214694 6.38830345,19.6950836 C8.63338709,20.458952 10.928947,20.850462 13.3026023,20.4934878 C14.3159376,20.3409025 15.295622,20.08314 16.08356,19.3516097 C16.6257832,18.8483294 16.960387,17.6505662 16.054671,17.0804121 C15.583559,16.7837184 15.0651454,16.5206187 14.5311761,16.3696032 C12.9940303,15.9357084 11.4079955,15.8321011 9.80704011,15.7586341 M55.6503019,23.1053336 C54.682681,22.9957611 53.7775999,22.9329688 52.887757,22.7835231 C51.6287069,22.5715991 50.4661651,22.1122734 49.4639409,21.2959734 C47.6712391,19.8360523 47.172508,16.591574 49.7528304,14.9963355 C50.5426731,14.5078114 51.4026748,14.201071 52.2928352,13.9671696 C52.562677,13.8959004 52.7137884,13.7935489 52.7737885,13.4959134 C53.0925193,11.9191986 52.6620422,10.5459309 51.6061672,9.36983109 C50.3502918,7.97050459 48.7071141,7.63174011 46.97346,8.35416557 C46.7880628,8.4314001 46.6064752,8.52213498 46.4331415,8.62323059 C45.4302825,9.2065711 44.5178998,8.74316389 44.4258361,7.58809946 C44.3505979,6.64652886 44.0474227,5.79161164 43.5242471,5.00199842 C41.4877353,1.93082683 36.997568,1.5280142 34.4680394,4.19543127 C33.8861335,4.80922605 33.1572432,4.81173774 32.5553373,4.19919881 C31.5896212,3.21649925 30.4343809,2.63064706 29.0470767,2.45859614 C25.7943721,2.05546955 22.7972235,4.46826383 22.5772231,7.69421846 C22.508969,8.68979044 21.5657926,9.18114022 20.6883306,8.67817386 C19.7200748,8.12308989 18.6962634,7.82576833 17.5724517,8.07034436 C15.133082,8.60156725 13.6870475,11.2570538 14.2883185,13.6246376 C14.3216519,13.7568154 14.5226046,13.8824 14.6733986,13.9442504 C15.4505429,14.2638633 16.2673699,14.502474 17.0127681,14.8804837 C18.0984845,15.4305443 18.8419779,16.3294161 19.0000735,17.5413076 C19.1927722,19.0194384 18.6968983,20.2991456 17.5353088,21.2868685 C16.4143543,22.2403697 15.0587961,22.6563687 13.6356188,22.874258 C12.8933952,22.9875981 12.1368858,23.0105173 11.3730748,23.0755073 C11.3600589,23.1766029 11.3365668,23.2864894 11.3330748,23.3973179 C11.2689477,25.3887758 12.0467269,26.961723 13.7464127,28.0524253 C14.7156209,28.674697 14.7619702,29.6065348 13.8435557,30.2919128 C13.5127614,30.5390006 13.1743481,30.7955071 12.9095857,31.1057011 C11.2521222,33.048495 11.2222809,35.8000538 12.8248236,37.7883721 C13.6664125,38.8326081 14.7781607,39.4215999 16.107687,39.6065232 C17.1210223,39.7478059 17.5673723,40.4890691 17.1768954,41.4080344 C16.6797516,42.5787969 16.7203866,43.7219308 17.2765781,44.8763673 C18.2921356,46.9827352 20.9896011,47.9337246 23.1210337,46.7296822 C24.0975435,46.1780518 24.9673864,46.9164893 25.0270691,47.7252542 C25.1645296,49.5945811 26.2813572,50.9282896 28.1816782,51.4403608 C29.6477128,51.8356384 31.3073985,51.5135139 32.53375,50.0469996 C33.0597827,49.4181347 33.8874034,49.4018087 34.4474044,49.9992775 C34.6439127,50.2090038 34.8413734,50.4206138 35.0597865,50.607107 C36.3020111,51.6667271 38.0483637,51.8588716 39.495668,51.2215297 C41.0293217,50.5458845 41.8705932,49.350005 42.001387,47.6737645 C42.0702761,46.7899628 42.9744048,46.2979851 43.7490094,46.6559012 C44.2220262,46.8747324 44.7220271,47.0690746 45.230917,47.172054 C47.6302866,47.6571245 50.1610851,45.6446312 50.1664819,43.2249297 C50.1680692,42.6299727 50.0093388,42.0183756 49.8306083,41.4428842 C49.5153696,40.4291024 49.9099735,39.7537712 50.9585469,39.6190817 C51.2064839,39.5873716 51.4525161,39.5220676 51.6909293,39.4464029 C53.7553777,38.7911652 54.9855387,37.3532214 55.3049044,35.2848429 C55.6185558,33.2510002 54.9398244,31.4946994 53.1696623,30.2969362 C52.2655336,29.6847113 52.3725179,28.5170884 53.2442656,28.0668675 C53.9607749,27.6973348 54.5115696,27.116506 54.9315704,26.4358374 C55.5699843,25.4013342 55.8210959,24.2792358 55.6503019,23.1053336 M55.7128417,29.2608632 C56.4382399,30.0382319 57.0045902,30.8746254 57.3388765,31.8431967 C58.184275,34.2917826 57.8884014,36.6188654 56.4728431,38.7833161 C55.5830002,40.1440253 54.3341089,41.0937589 52.7747409,41.6202724 C52.5528357,41.6949953 52.4956927,41.7894977 52.5356928,42.0249688 C53.0061699,44.773074 51.4848971,47.669997 48.9614003,48.9117148 C47.5150483,49.6234655 46.0166328,49.8291103 44.4398044,49.4881481 C44.3544074,49.4696244 44.2661533,49.4633452 44.1471054,49.4467052 C43.3791674,51.6243423 41.8715455,53.0855192 39.6394778,53.7146981 C37.4312196,54.3366559 35.3705808,53.9457738 33.5153392,52.5021787 C31.6883516,53.9168893 29.6286651,54.3445049 27.399772,53.7175238 C25.1740535,53.0917984 23.6727808,51.6507151 22.8737316,49.4448214 C20.5000763,50.0074405 18.3670564,49.5182884 16.5768943,47.8611995 C14.7876845,46.2050525 14.1200642,44.1416974 14.511811,41.7530781 C9.10068956,40.0746399 7.50386113,33.0356226 11.2921223,29.2483047 C9.45846802,27.4982832 8.71275232,25.3467049 8.93338766,22.8595018 C8.12513215,22.6610781 7.32608301,22.4943645 6.54481169,22.2676843 C4.75814162,21.7487059 3.1108369,20.9578368 1.71718346,19.7088979 C1.07400763,19.1327785 0.55940348,18.4568194 0.196863108,17.676311 C-0.200915426,16.819824 0.0124183129,15.9944192 0.761626087,15.4026017 C1.55908792,14.7727949 2.49623256,14.4475308 3.46512329,14.1960476 C6.04004882,13.5279375 8.66291095,13.3599681 11.3114874,13.4654591 C11.424821,13.4698546 11.5381545,13.4783315 11.6514881,13.4808432 C11.6730754,13.4811572 11.6949802,13.4620055 11.7518057,13.4359467 C11.5356148,11.0460716 12.2664099,8.95979734 14.0410164,7.29642921 C15.852131,5.59883927 17.992135,5.14924637 20.3918221,5.87167183 C20.6191242,5.35080967 20.8057912,4.80828416 21.07976,4.31316684 C22.428334,1.87745337 24.5299253,0.501987948 27.2915178,0.10168701 C28.9080288,-0.132842246 30.4635873,0.11204774 31.9356536,0.806216661 C32.3747021,1.01343126 32.7870838,1.28657779 33.1820052,1.57008504 C33.4264501,1.74558953 33.5842282,1.74527557 33.8324826,1.56820127 C36.0137566,0.0131498608 38.4309041,-0.379616001 40.9842423,0.364158841 C43.6696442,1.14655095 45.5344096,2.86015293 46.4591733,5.51281381 C46.4998083,5.6296075 46.5509195,5.74294761 46.6064752,5.8817186 C49.0156861,5.15113014 51.165214,5.60480454 52.9731539,7.32719744 C54.7153795,8.98679803 55.4944286,11.0460716 55.2960155,13.4478773 C56.2518903,13.4478773 57.1706222,13.4233883 58.0871319,13.4529007 C60.198882,13.5213443 62.2842828,13.7806765 64.305239,14.4239836 C65.0912722,14.674211 65.8458768,15.000731 66.4325446,15.5969439 C67.0893713,16.265368 67.1598476,16.9812002 66.7274658,17.8257567 C65.954131,19.3377954 64.6934937,20.3478096 63.2312687,21.1377368 C61.7363452,21.9452458 60.1372946,22.4683057 58.4553866,22.7414522 C58.3439578,22.759348 58.2350687,22.7916861 58.0858621,22.8268498 C58.309672,25.3143669 57.583004,27.4744222 55.7128417,29.2608632" id="Fill-3" fill="#DAAA00"></path>
                <path d="M29.0969669,16.3131965 C29.0632949,16.3204879 29.0224519,16.3192199 28.9931448,16.3372901 C27.5917017,17.1900766 26.0932957,17.361902 24.5144508,17.0176172 C24.4177996,16.9966938 24.2528689,17.0658044 24.1917604,17.1482299 C23.5831693,17.9693143 22.8289779,18.6030394 21.9232622,19.0595497 C21.8216225,19.1109071 21.7159297,19.2462751 21.6950405,19.3588175 C21.2532508,21.7554965 21.2619806,24.1404458 21.8886548,26.509861 C22.4539087,28.6462657 23.4743587,30.5747047 24.5047857,32.4993394 C25.2078456,33.8121235 25.8102011,35.1432948 25.7871295,36.7001851 C25.7696699,37.8925012 26.0555705,39.0445556 26.50609,40.150642 C27.7507086,43.2051397 30.5888256,44.8945447 33.8235245,44.506511 C36.8480849,44.1438389 38.7583499,42.3932488 39.7089617,39.5286467 C39.9904974,38.6799814 40.196271,37.7596694 40.1978299,36.8716935 C40.2006359,35.3325563 40.7044695,33.9937765 41.3994231,32.6838456 C42.2867439,31.0115597 43.1868476,29.3475163 43.8032331,27.5398623 C44.7126901,24.8737154 44.8071589,22.1657218 44.2998958,19.4174664 C44.2730829,19.2729048 44.1418242,19.1007624 44.0127481,19.0316518 C43.1659584,18.5770437 42.4345268,17.9867505 41.8683376,17.2011724 C41.7258549,17.0036683 41.5877372,17.0046193 41.3716749,17.0188853 C40.5981531,17.0696086 39.8077954,17.180883 39.0507979,17.0737299 C38.3093893,16.9684789 37.601341,16.6245111 36.8552558,16.3778688 C35.0042286,19.1407071 31.0490103,19.1590943 29.0969669,16.3131965 M19.0028357,22.3315238 C18.9713461,21.0754864 19.2064269,19.5705876 19.4935746,18.0726632 C19.5877316,17.5803295 19.8658378,17.2325575 20.3506529,17.0734129 C21.4502946,16.71296 22.2322344,16.0060031 22.6933543,14.9148167 C22.9742665,14.2503406 23.6866797,14.0512514 24.3990929,14.3866596 C25.5788616,14.9423975 26.7327528,14.8938933 27.8383183,14.1977151 C28.128272,14.015111 28.3861126,13.7649814 28.6208816,13.5097795 C28.9691378,13.1312564 29.3688375,12.9102927 29.8761006,13.034882 C30.4070589,13.1654946 30.7235138,13.533239 30.8136177,14.0864407 C30.9617124,14.9921698 31.461181,15.6094098 32.3179476,15.8782436 C33.1940443,16.1531008 34.0143328,15.9872988 34.6201178,15.2670271 C34.8966651,14.9382762 35.0884087,14.4931787 35.1944133,14.0686875 C35.3291015,13.5291177 35.6068958,13.1740542 36.1126001,13.0424905 C36.6248517,12.9093416 37.0448169,13.1024074 37.3871494,13.5268986 C38.3178073,14.6808552 40.0690655,15.08474 41.415012,14.4770106 C41.4942037,14.4411873 41.5730836,14.4044128 41.6519635,14.3676384 C42.3597,14.0369854 43.0453003,14.2611193 43.349284,14.9915358 C43.7863971,16.0411924 44.5564892,16.6869643 45.5850455,17.0515385 C46.0910616,17.2309724 46.3616851,17.5793785 46.4761077,18.1097547 C46.9157149,20.1523212 47.1158765,22.2088366 46.9316156,24.2995903 C46.7557727,26.2901654 46.2441447,28.1916576 45.4207384,29.9951902 C44.7644453,31.4325636 44.0186718,32.8280902 43.3018937,34.2366146 C42.8931525,35.0396289 42.6203466,35.8559581 42.6035106,36.7876829 C42.5639147,38.9865408 41.9768364,41.0373498 40.7562247,42.8735357 C39.2434768,45.1494297 37.1383504,46.496135 34.469529,46.8829007 C31.8992294,47.2557174 29.5094495,46.752288 27.3909166,45.1716211 C25.8151895,43.9957901 24.7604438,42.4217807 24.0941738,40.5668906 C23.648331,39.3260703 23.3761486,38.040233 23.3851902,36.7252297 C23.3923611,35.6869859 22.9879847,34.8243716 22.5577308,33.9424191 C21.7608257,32.3084927 20.9218306,30.6916854 20.2072349,29.0206676 C19.3379973,26.9876117 18.9844408,24.8283814 19.0028357,22.3315238" id="Fill-6" fill="#002855"></path>
                <path d="M34.8743012,40.3022849 C35.435698,40.0555628 36.0099232,39.8353869 36.5542154,39.5539988 C37.0474993,39.2988445 37.5007706,39.3622427 37.7548958,39.798847 C37.99436,40.2104668 37.8789041,40.7385769 37.4167749,40.9718697 C36.8000937,41.2832392 36.1644753,41.5808671 35.5062544,41.7763709 C33.7695286,42.2916764 32.1448988,41.864129 30.5951017,41.0277725 C30.0834914,40.7516937 29.9115293,40.2576251 30.1439684,39.8232069 C30.3889304,39.3653658 30.8590009,39.2957215 31.4094019,39.5711757 C31.9378112,39.8353869 32.4934047,40.0418214 33.1003118,40.3010356 C33.1259687,40.0942888 33.1494875,39.9909154 33.149793,39.887542 C33.1522365,39.0055889 33.1607888,38.1230111 33.1397135,37.2416825 C33.1360482,37.082094 33.0435002,36.8809687 32.9262117,36.7760337 C32.0676228,36.0077601 31.1913185,35.2597864 30.3226501,34.504005 C29.9512364,34.1804556 29.8947302,33.6779546 30.1830645,33.3134931 C30.4848382,32.9315424 30.9747623,32.8953149 31.3751927,33.2388519 C32.1662796,33.9162444 32.9582827,34.5930123 33.7353194,35.2866447 C33.9344656,35.4649716 34.0596956,35.4562271 34.2530384,35.2857078 C35.0236609,34.6036307 35.8065009,33.9359197 36.5878137,33.2672718 C37.0279512,32.8906303 37.4653397,32.9146779 37.8010171,33.3228623 C38.1122594,33.7010653 38.059113,34.159531 37.6363855,34.5296141 C36.7603867,35.2963262 35.873392,36.0499215 34.9964768,36.8156967 C34.9033179,36.8975209 34.7860294,37.0236927 34.7841967,37.1311261 C34.7680085,38.147371 34.7747281,39.1639282 34.7747281,40.1804854 C34.8077155,40.2210852 34.8413138,40.261685 34.8743012,40.3022849" id="Fill-8" fill="#002855"></path>
                <path d="M29,22.996077 C29.0042697,24.0955171 28.1232112,24.9867235 27.0193168,24.9998631 C25.9254214,25.012717 25.0100804,24.1189399 25.0000813,23.0286403 C24.9900823,21.9249155 25.9034235,20.9980037 26.999033,21 C28.0914999,21.0017171 28.9959848,21.9040635 29,22.996077" id="Fill-10" fill="#002855"></path>
                <path d="M38,23.0194303 C37.9971435,21.9066097 38.9030814,20.9957306 40.0088754,21 C41.1006393,21.0040139 41.9968421,21.907181 42,23.0065769 C42.0031413,24.1071154 41.1098018,24.9994285 40.0045805,25 C38.8999318,25.000571 38.0031564,24.1142562 38,23.0194303" id="Fill-12" fill="#002855"></path>
            </g>
        </g>
    </g>
</svg>